HIERARCHY
ROOT Hips
{
	OFFSET	0.00	0.00	0.00
	CHANNELS 6 Xposition Yposition Zposition Zrotation Xrotation Yrotation
	JOINT LeftUpLeg
	{
		OFFSET	 0.126116	-0.014019	-0.065224
		CHANNELS 3 Zrotation Xrotation Yrotation
		JOINT LeftLeg
		{
			OFFSET	 0.000000	 0.000000	 0.569914
			CHANNELS 3 Zrotation Xrotation Yrotation
			JOINT LeftFoot
			{
				OFFSET	 0.000000	 0.000000	 0.544423
				CHANNELS 3 Zrotation Xrotation Yrotation
				JOINT LeftToeBase
				{
					OFFSET	 0.000000	 0.000000	 0.207117
					CHANNELS 3 Zrotation Xrotation Yrotation
					End Site
					{
						OFFSET	 0.000000	 0.000000	 0.207117
					}
				}
			}
		}
	}
	JOINT RightUpLeg
	{
		OFFSET	-0.124023	-0.008373	-0.065224
		CHANNELS 3 Zrotation Xrotation Yrotation
		JOINT RightLeg
		{
			OFFSET	 0.000000	 0.000000	 0.570047
			CHANNELS 3 Zrotation Xrotation Yrotation
			JOINT RightFoot
			{
				OFFSET	 0.000000	 0.000000	 0.544354
				CHANNELS 3 Zrotation Xrotation Yrotation
				JOINT RightToeBase
				{
					OFFSET	 0.000000	 0.000000	 0.207540
					CHANNELS 3 Zrotation Xrotation Yrotation
					End Site
					{
						OFFSET	 0.000000	 0.000000	 0.207540
					}
				}
			}
		}
	}
	JOINT Spine
	{
		OFFSET	 0.000184	-0.007763	 0.117403
		CHANNELS 3 Zrotation Xrotation Yrotation
		JOINT Spine1
		{
			OFFSET	 0.000000	 0.000000	 0.137269
			CHANNELS 3 Zrotation Xrotation Yrotation
			JOINT Spine2
			{
				OFFSET	 0.000000	 0.000000	 0.156879
				CHANNELS 3 Zrotation Xrotation Yrotation
				JOINT LeftShoulder
				{
					OFFSET	 0.080501	-0.002496	 0.160144
					CHANNELS 3 Zrotation Xrotation Yrotation
					JOINT LeftArm
					{
						OFFSET	 0.000000	 0.000000	 0.164363
						CHANNELS 3 Zrotation Xrotation Yrotation
						JOINT LeftForeArm
						{
							OFFSET	 0.000000	 0.000000	 0.364576
							CHANNELS 3 Zrotation Xrotation Yrotation
							JOINT LeftHand
							{
								OFFSET	 0.000000	 0.000000	 0.360812
								CHANNELS 3 Zrotation Xrotation Yrotation
								JOINT LeftHandIndex1
								{
									OFFSET	 0.000000	 0.000000	 0.086006
									CHANNELS 3 Zrotation Xrotation Yrotation
									JOINT LeftHandIndex2
									{
										OFFSET	 0.000000	 0.000000	 0.047236
										CHANNELS 3 Zrotation Xrotation Yrotation
										JOINT LeftHandIndex3
										{
											OFFSET	-0.004284	-0.000551	 0.038166
											CHANNELS 3 Zrotation Xrotation Yrotation
											End Site
											{
												OFFSET	-0.004284	-0.000551	 0.038166
											}
										}
									}
								}
							}
						}
					}
				}
				JOINT Neck
				{
					OFFSET	 0.000000	 0.000000	 0.176489
					CHANNELS 3 Zrotation Xrotation Yrotation
					JOINT Head
					{
						OFFSET	 0.000000	-0.001747	 0.077940
						CHANNELS 3 Zrotation Xrotation Yrotation
						End Site
						{
							OFFSET	 0.000000	-0.001747	 0.077940
						}
					}
				}
				JOINT RightShoulder
				{
					OFFSET	-0.080363	 0.000306	 0.159706
					CHANNELS 3 Zrotation Xrotation Yrotation
					JOINT RightArm
					{
						OFFSET	 0.000000	 0.000000	 0.164196
						CHANNELS 3 Zrotation Xrotation Yrotation
						JOINT RightForeArm
						{
							OFFSET	 0.000000	 0.000000	 0.365611
							CHANNELS 3 Zrotation Xrotation Yrotation
							JOINT RightHand
							{
								OFFSET	 0.000000	 0.000000	 0.360648
								CHANNELS 3 Zrotation Xrotation Yrotation
								JOINT RightHandIndex1
								{
									OFFSET	 0.000000	 0.000000	 0.069977
									CHANNELS 3 Zrotation Xrotation Yrotation
									JOINT RightHandIndex2
									{
										OFFSET	 0.000000	 0.000000	 0.052305
										CHANNELS 3 Zrotation Xrotation Yrotation
										JOINT RightHandIndex3
										{
											OFFSET	 0.009002	-0.000782	 0.042196
											CHANNELS 3 Zrotation Xrotation Yrotation
											End Site
											{
												OFFSET	 0.009002	-0.000782	 0.042196
											}
										}
									}
								}
							}
						}
					}
				}
			}
		}
	}
}
MOTION
Frames:    12
Frame Time: 0.03333334
 0.011786	 0.052898	 1.199536	 4.720712	-1.504518	-3.493944	 9.513214	-11.089860	-173.378400	 0.721379	-39.485980	 0.234428	 58.695960	 81.975590	-62.459790	-2.370252	 31.471550	-0.066683	-13.845960	-31.286170	-174.984200	 10.710920	-52.305560	 9.120461	 11.093600	 74.845920	-6.086782	 2.358478	 33.072380	 0.104904	-0.501420	 8.794029	 1.115073	 0.999742	 2.882081	 2.391214	-6.505813	-2.749480	-3.026963	-93.884480	 58.912630	 175.509800	 14.293790	 32.643170	-40.240690	-1.332067	-0.049116	-0.591773	 0.981969	-5.280753	-6.877903	-4.870441	 19.228260	-2.788429	-3.881709	 21.470510	 2.202943	-4.806969	 5.560783	 0.146077	-0.092658	-5.055123	 0.175603	-8.492275	 1.954453	 2.265175	 89.797060	 61.625450	-179.964400	-19.552150	 51.264730	 9.358211	-1.105685	-2.328273	 12.536340	-4.954867	 9.230297	 0.641830	 6.296706	 25.192790	-0.552869	 1.839454	 45.070190	-6.952026	 0.477314	 24.490570	 3.593158
 0.011539	 0.047907	 1.198734	 4.896343	-1.419614	-3.490850	 9.376655	-11.001260	-173.441100	 0.844300	-39.613750	 0.313447	 60.195350	 82.167720	-64.050030	-2.369946	 31.522400	-0.067832	-14.310080	-31.819680	-175.125400	 10.798700	-51.876550	 9.138438	 11.852090	 75.797940	-7.006001	 2.358659	 33.046250	 0.104293	-0.785710	 8.754062	 1.093503	 0.992467	 2.848262	 2.404173	-6.532881	-2.762813	-3.025512	-93.916930	 58.931320	 175.438200	 14.170110	 32.287570	-40.362300	-1.593357	-0.046269	-0.620481	 1.053064	-5.316274	-7.163487	-4.870304	 19.235000	-2.789535	-3.880293	 21.488690	 2.201491	-4.806638	 5.564636	 0.145848	-0.082957	-5.066695	 0.180532	-8.484749	 1.946146	 2.224318	 89.786830	 61.638150	-179.988600	-19.487280	 51.424750	 8.948138	-1.059239	-2.365443	 12.817230	-4.940944	 9.343142	 0.601918	 6.294568	 24.962180	-0.545867	 1.870866	 44.818680	-6.980069	 0.513373	 24.332760	 3.574812
 0.010649	 0.028704	 1.195953	 5.422124	-1.041044	-3.501372	 8.955672	-10.606510	-173.661900	 1.134431	-39.932320	 0.501785	 65.784240	 82.776400	-69.841930	-2.369050	 31.673280	-0.071250	-15.920200	-33.717710	-175.743100	 11.098270	-49.822680	 9.112678	 13.318930	 78.175000	-9.011644	 2.358955	 33.002830	 0.103290	-1.666468	 8.522309	 1.012700	 0.949794	 2.797895	 2.478985	-6.624835	-2.840840	-3.044168	-94.032840	 58.968500	 175.186500	 13.546380	 30.978370	-40.770870	-2.254360	-0.038640	-0.724617	 1.389011	-5.486509	-7.802948	-4.867610	 19.308420	-2.795239	-3.874307	 21.565080	 2.195418	-4.805283	 5.580612	 0.144912	-0.054994	-5.093272	 0.208337	-8.477579	 1.922757	 2.123444	 89.745100	 61.705670	 179.911700	-19.274900	 52.016450	 7.564659	-1.024146	-2.481671	 13.576930	-4.979527	 9.714398	 0.440823	 6.284661	 24.145060	-0.543318	 1.972957	 43.983800	-7.070912	 0.671458	 23.635660	 3.495347
 0.009646	 0.006747	 1.193016	 5.893596	-0.608443	-3.528281	 8.543187	-10.037330	-173.914700	 1.334788	-40.088370	 0.632457	 72.404020	 83.346210	-76.580860	-2.368239	 31.807320	-0.074287	-17.572600	-35.480340	-176.563500	 11.212790	-46.889310	 8.798639	 14.623700	 79.948200	-10.910990	 2.359028	 32.990280	 0.103005	-2.491703	 8.230202	 0.927390	 0.887581	 2.807006	 2.568667	-6.715826	-2.946858	-3.077287	-94.150630	 58.987660	 174.932700	 12.729070	 29.561520	-41.194270	-2.746452	-0.030649	-0.822559	 1.768723	-5.683113	-8.213861	-4.863456	 19.414450	-2.802202	-3.867636	 21.650070	 2.188643	-4.803786	 5.598279	 0.143880	-0.030757	-5.110951	 0.243029	-8.482748	 1.903021	 2.049233	 89.699460	 61.788450	 179.801900	-19.055210	 52.632410	 6.244643	-1.078667	-2.550432	 13.981500	-5.071473	 10.072630	 0.264636	 6.272999	 23.317800	-0.554927	 2.068826	 43.174500	-7.155817	 0.849210	 22.841540	 3.407898
 0.008700	-0.018239	 1.189706	 6.210411	-0.181868	-3.672994	 8.277174	-9.137197	-174.106600	 1.480242	-39.992950	 0.724705	 80.880810	 83.873370	-85.127290	-2.367060	 31.997920	-0.078627	-18.738440	-36.972360	-177.340100	 11.122640	-43.010490	 8.166548	 14.225840	 80.029690	-11.158930	 2.359926	 32.858570	 0.099937	-3.237588	 7.896195	 0.962463	 0.825243	 2.967925	 2.635695	-6.793376	-3.091856	-3.112433	-94.257620	 58.991130	 174.704200	 11.749130	 28.046940	-41.694450	-3.450224	-0.019843	-0.928027	 1.875526	-5.985720	-8.169556	-4.856190	 19.583900	-2.810039	-3.859087	 21.758780	 2.179956	-4.799755	 5.645711	 0.141102	-0.015751	-5.141702	 0.277394	-8.502849	 1.881014	 2.012041	 89.636430	 61.870880	 179.649900	-18.770350	 53.230740	 5.033681	-1.315783	-2.583888	 13.982600	-5.261126	 10.471530	-0.138502	 6.257762	 22.372890	-0.581727	 2.161133	 42.371200	-7.237186	 1.060307	 21.884390	 3.306716
 0.007725	-0.044349	 1.185994	 6.435679	 0.233722	-3.881279	 8.095119	-8.064774	-174.265100	 1.590249	-39.733970	 0.791127	 90.804140	 84.273750	-95.092120	-2.365685	 32.217450	-0.083643	-19.562600	-38.063580	-178.057000	 10.951390	-38.503250	 7.352334	 12.686520	 79.070080	-10.255170	 2.361234	 32.661370	 0.095387	-3.930163	 7.542951	 1.063887	 0.763470	 3.187195	 2.689225	-6.861505	-3.244955	-3.147065	-94.356700	 58.985740	 174.493800	 10.745300	 26.582580	-42.197600	-4.262289	-0.006843	-1.034607	 1.824332	-6.341730	-7.865084	-4.847240	 19.786620	-2.818257	-3.849599	 21.879140	 2.170305	-4.794356	 5.709238	 0.137376	-0.006191	-5.179382	 0.311034	-8.531069	 1.858138	 1.996235	 89.564750	 61.951820	 179.476100	-18.427900	 53.761210	 4.013718	-1.661380	-2.554616	 13.560820	-5.496397	 10.887250	-0.665255	 6.240377	 21.376670	-0.616704	 2.248943	 41.584430	-7.314209	 1.284729	 20.850200	 3.202406
 0.006618	-0.070056	 1.181824	 6.549140	 0.491395	-4.072186	 7.979589	-6.813209	-174.472300	 1.663866	-39.427330	 0.832793	 99.897740	 84.568700	-104.173600	-2.362694	 32.681340	-0.094298	-19.714250	-38.708370	-178.549900	 10.475400	-34.155950	 6.394555	 16.763930	 80.182530	-14.850240	 2.358107	 33.126590	 0.106166	-4.612039	 7.246602	 1.184768	 0.715069	 3.546407	 2.689163	-6.897040	-3.416208	-3.153221	-94.420300	 58.975370	 174.359900	 9.709727	 25.382240	-42.654250	-4.999980	 0.007107	-1.141289	 1.648331	-6.473043	-7.578451	-4.836974	 19.996420	-2.821476	-3.838030	 22.025260	 2.158556	-4.784008	 5.830959	 0.130214	 0.007288	-5.225773	 0.329675	-8.534936	 1.824038	 1.961932	 89.504490	 62.004300	 179.329400	-17.926590	 54.181510	 3.106790	-2.072338	-2.480325	 12.892600	-5.660230	 11.190660	-1.375388	 6.219746	 20.269160	-0.659970	 2.381235	 40.355470	-7.429509	 1.522032	 19.738310	 3.095881
 0.005379	-0.093849	 1.177089	 6.616354	 0.681934	-4.253035	 7.907437	-5.627098	-174.683600	 1.725870	-39.218850	 0.868324	 108.741000	 84.761950	-112.988000	-2.358925	 33.241470	-0.107271	-19.280840	-39.487460	-178.721900	 10.182450	-31.064950	 5.696121	 29.716550	 82.634990	-28.250860	 2.352935	 33.858880	 0.123324	-5.281640	 6.976102	 1.309887	 0.679336	 3.903601	 2.674451	-6.917745	-3.567022	-3.147836	-94.468870	 58.962960	 174.258400	 8.822482	 24.476960	-43.028510	-5.703725	 0.021914	-1.250635	 1.420018	-6.513789	-7.301011	-4.826243	 20.207500	-2.822641	-3.825675	 22.180750	 2.146012	-4.771691	 5.975487	 0.121676	 0.022307	-5.275359	 0.342093	-8.528910	 1.785595	 1.920472	 89.449250	 62.044740	 179.195000	-17.345790	 54.498290	 2.262061	-2.501056	-2.412750	 12.295130	-5.784401	 11.446920	-2.156249	 6.197423	 19.124790	-0.706339	 2.525220	 38.955180	-7.553948	 1.760332	 18.603150	 2.992906
 0.003501	-0.121165	 1.170452	 6.768985	 0.744745	-4.415563	 7.729064	-4.139362	-175.030300	 1.857929	-39.101890	 0.949467	 116.444900	 84.975590	-120.672800	-2.349818	 34.497260	-0.136839	-19.105050	-41.068310	-179.045300	 10.373680	-29.137060	 5.472518	 37.832690	 83.095440	-36.982380	 2.344566	 34.960280	 0.149560	-6.194256	 6.948885	 1.407849	 0.642535	 4.089172	 2.712478	-6.925028	-3.725356	-3.171796	-94.510300	 58.933350	 174.175000	 7.782638	 23.712410	-43.385700	-6.233847	 0.038772	-1.379269	 1.208649	-6.906659	-7.365316	-4.831906	 20.367160	-2.902286	-3.808970	 22.390050	 2.129039	-4.750854	 6.219203	 0.107211	 0.059529	-5.334114	 0.349877	-8.481705	 1.786405	 1.783285	 89.400980	 62.021780	 179.078900	-16.541320	 54.773240	 0.907236	-2.880533	-2.396358	 12.049930	-5.746910	 11.453340	-3.003831	 6.178734	 17.767820	-0.710700	 2.694592	 37.219490	-7.698767	 2.038422	 17.255270	 2.877951
 0.001548	-0.145654	 1.163728	 6.923970	 0.753676	-4.545340	 7.534275	-2.746882	-175.383500	 1.990245	-39.008060	 1.030876	 123.271800	 85.149450	-127.479600	-2.339581	 35.776090	-0.167685	-19.047410	-42.999610	-179.386500	 10.786040	-28.590330	 5.582546	 43.053750	 83.154300	-42.793420	 2.335960	 36.002250	 0.174909	-7.044693	 7.006267	 1.481667	 0.608866	 4.170229	 2.759513	-6.926572	-3.852766	-3.199584	-94.542640	 58.902870	 174.111400	 6.910125	 23.174410	-43.680160	-6.622833	 0.054802	-1.494594	 1.036335	-7.354623	-7.532562	-4.841901	 20.483530	-2.994825	-3.793505	 22.582640	 2.113342	-4.730588	 6.455553	 0.093091	 0.097974	-5.386219	 0.354883	-8.428782	 1.799627	 1.637746	 89.362820	 61.981690	 178.988100	-15.780490	 54.964570	-0.448133	-3.183434	-2.425561	 12.078270	-5.650260	 11.379300	-3.733418	 6.164782	 16.564150	-0.700864	 2.839044	 35.658750	-7.820834	 2.281181	 16.058900	 2.782342
-0.001094	-0.170179	 1.156736	 7.054333	 0.717440	-4.450860	 7.259600	-1.377626	-175.985600	 2.253418	-38.966520	 1.195549	 122.069000	 85.794300	-126.260100	-2.318467	 38.082280	-0.225370	-18.958020	-44.874100	-179.924800	 10.746090	-28.643550	 5.572243	 29.055160	 81.510410	-28.604240	 2.336570	 35.931440	 0.173166	-7.934116	 7.009819	 1.416512	 0.600709	 4.359638	 2.711771	-6.927970	-3.955526	-3.202744	-94.535510	 59.028910	 174.105700	 6.133083	 22.863500	-44.014540	-7.020365	 0.072313	-1.608416	 0.746236	-7.920207	-7.847652	-4.857704	 20.540790	-3.103516	-3.780266	 22.746820	 2.099897	-4.706814	 6.731820	 0.076472	 0.135279	-5.430868	 0.322695	-8.344451	 1.835333	 1.544952	 89.357410	 61.843400	 178.980300	-15.134790	 55.035160	-1.850391	-3.343498	-2.514750	 12.495060	-5.616008	 11.173070	-4.323183	 6.171866	 15.428330	-0.589358	 2.925491	 34.687580	-7.893188	 2.505498	 14.937510	 2.698005
-0.003948	-0.195797	 1.149680	 7.182801	 0.674751	-4.322758	 6.971580	 0.104588	-176.634900	 2.530507	-38.730500	 1.362951	 117.839900	 86.584590	-121.994200	-2.291852	 40.538390	-0.290152	-18.894320	-46.592390	 179.513500	 10.665070	-28.954600	 5.586742	 19.702710	 79.482570	-18.975340	 2.338393	 35.715660	 0.167883	-8.852004	 7.007222	 1.330455	 0.584352	 4.491683	 2.645969	-6.927662	-4.023171	-3.196250	-94.523160	 59.176180	 174.107400	 5.435057	 22.655030	-44.267990	-7.426294	 0.091698	-1.727564	 0.436425	-8.507861	-8.185390	-4.874300	 20.590830	-3.215116	-3.767171	 22.908480	 2.086598	-4.682319	 7.015238	 0.059290	 0.172672	-5.474916	 0.285493	-8.255512	 1.873881	 1.458639	 89.356250	 61.691360	 178.983100	-14.495100	 55.051230	-3.182121	-3.492352	-2.588913	 12.859830	-5.583194	 10.950160	-4.898631	 6.183971	 14.293210	-0.464723	 3.003531	 33.785890	-7.958038	 2.726661	 13.817510	 2.618728
